<svg xmlns="http://www.w3.org/2000/svg" xmlns:xlink="http://www.w3.org/1999/xlink" viewBox="0 0 20 20">
    <path d="M4.4416 13.2741C4.25815 12.4734 4.16589 11.6546 4.1666 10.8332C4.1666 6.59323 6.58577 2.96989 9.99993 1.51489C13.4141 2.96989 15.8333 6.59323 15.8333 10.8332C15.8333 11.6749 15.7383 12.4924 15.5583 13.2741L17.2416 14.7707C17.3141 14.8352 17.3618 14.9228 17.3765 15.0187C17.3913 15.1145 17.3721 15.2125 17.3224 15.2957L15.2741 18.7091C15.2415 18.7633 15.197 18.8094 15.1439 18.8438C15.0908 18.8783 15.0306 18.9002 14.9678 18.9079C14.905 18.9156 14.8412 18.9089 14.7814 18.8883C14.7215 18.8678 14.6672 18.8338 14.6224 18.7891L12.7441 16.9107C12.5879 16.7544 12.3759 16.6666 12.1549 16.6666H7.84493C7.62394 16.6666 7.41201 16.7544 7.25577 16.9107L5.37743 18.7891C5.33268 18.8338 5.27832 18.8678 5.21848 18.8883C5.15865 18.9089 5.09491 18.9156 5.0321 18.9079C4.96929 18.9002 4.90906 18.8783 4.85598 18.8438C4.8029 18.8094 4.75837 18.7633 4.72577 18.7091L2.67743 15.2966C2.6275 15.2132 2.60824 15.1151 2.623 15.0191C2.63776 14.923 2.68561 14.8352 2.75827 14.7707L4.4416 13.2741ZM9.99993 10.8332C10.442 10.8332 10.8659 10.6576 11.1784 10.3451C11.491 10.0325 11.6666 9.60859 11.6666 9.16656C11.6666 8.72453 11.491 8.30061 11.1784 7.98805C10.8659 7.67549 10.442 7.49989 9.99993 7.49989C9.5579 7.49989 9.13398 7.67549 8.82142 7.98805C8.50886 8.30061 8.33327 8.72453 8.33327 9.16656C8.33327 9.60859 8.50886 10.0325 8.82142 10.3451C9.13398 10.6576 9.5579 10.8332 9.99993 10.8332Z"
          fill="url(#paint0_linear_2_13623)"/>
    <defs>
        <linearGradient id="paint0_linear_2_13623" x1="2.61816" y1="1.51489" x2="17.3814" y2="1.51489"
                        gradientUnits="userSpaceOnUse">
            <stop stop-color="#F96D8C"/>
            <stop offset="1" stop-color="#FBD862"/>
        </linearGradient>
    </defs>
</svg>