<svg width="174" height="48" viewBox="0 0 174 48" fill="none" xmlns="http://www.w3.org/2000/svg">
<path fill-rule="evenodd" clip-rule="evenodd" d="M8.33268 19.2027L0 24.0022L8.33268 19.2027ZM0 33.6003L8.33317 38.4004V19.2002L16.6668 23.9997L25 28.7998L33.3332 23.9997L41.6663 19.2002V28.8003L33.3337 33.6003L25.0005 38.4004V48L33.3337 43.1999L41.6668 38.3999L50 33.5998V4.79999L41.6673 9.60005L33.3346 14.4001L25.0015 19.2002L16.6688 14.4001L8.33512 9.60005V0L0.00243824 4.79999V33.5998L0 33.6003Z" fill="url(#paint0_linear_2_14098)"/>
<path d="M79.8249 22.0362L75.1307 17.0169H74V28.6075H77.1352V23.4561L79.6707 26.0318H80.0134L82.566 23.4561V28.6075H85.7012V17.0169H84.6059L79.8249 22.0362ZM96.2374 17.0499H88.7507V28.6075H96.393V25.982H91.8002V23.952H95.8777V21.3265H91.8002V19.6917H96.2377L96.2374 17.0499ZM106.808 24.5128C109.841 22.5315 108.984 17.0664 104.272 17.0499H99.0128V28.6075H102.079V25.2062H103.673L105.729 28.6075H109.155V28.1782L106.808 24.5128ZM104.272 22.548H102.079V19.6917C102.799 19.6917 103.553 19.6751 104.272 19.6917C106.02 19.7082 105.934 22.548 104.272 22.548ZM110.286 22.8287C110.303 26.7583 113.387 28.7395 116.436 28.723C118.989 28.723 121.679 27.4352 122.124 24.1661H119.109C118.783 25.4044 117.738 26.0318 116.436 26.0318C114.62 26.0153 113.455 24.5293 113.455 22.8287C113.455 20.9135 114.637 19.6077 116.436 19.6077C117.721 19.6077 118.629 20.1361 119.057 21.3084H122.073C121.61 18.2208 118.92 16.9165 116.436 16.9165C113.387 16.9178 110.303 18.8991 110.286 22.8287ZM134.459 17.0499H131.324V21.2437H127.624V17.0499H124.488V28.6075H127.624V23.9679H131.325V28.6075H134.46L134.459 17.0499ZM142.049 17.0499H137.527V28.6075H142.049C149.861 28.5744 149.861 17.083 142.049 17.0499ZM140.592 19.7412H142.049C145.868 19.7412 145.868 25.9162 142.049 25.9162H140.592V19.7412ZM157.862 28.6075H160.86V28.1782L155.446 16.9013H154.126L148.73 28.1782V28.6075H151.728L152.43 27.1545H157.159L157.862 28.6075ZM156.148 24.6119H153.441L154.778 21.5739L156.148 24.6119ZM174 22.8452C174 14.854 161.699 14.854 161.699 22.8452C161.699 30.854 174 30.854 174 22.8452ZM164.851 22.8452C164.851 18.6845 170.865 18.6845 170.865 22.8452C170.865 27.0376 164.851 27.0376 164.851 22.8452Z" fill="url(#paint1_linear_2_14098)"/>
<defs>
<linearGradient id="paint0_linear_2_14098" x1="0" y1="0" x2="50" y2="0" gradientUnits="userSpaceOnUse">
<stop stop-color="#F96D8C"/>
<stop offset="1" stop-color="#FBD862"/>
</linearGradient>
<linearGradient id="paint1_linear_2_14098" x1="74" y1="16.8518" x2="174" y2="16.8518" gradientUnits="userSpaceOnUse">
<stop stop-color="#F96D8C"/>
<stop offset="1" stop-color="#FBD862"/>
</linearGradient>
</defs>
</svg>
