<svg width="1119" height="142" viewBox="0 0 1119 142" fill="none" xmlns="http://www.w3.org/2000/svg">
<path d="M9.00001 2.8365C4.58173 2.8365 1 6.41822 1 10.8365L1 131.164C1 135.582 4.58172 139.163 9 139.163H31.5453C35.9635 139.163 39.5453 135.582 39.5453 131.163L39.5453 62.5017L67.5703 133.067C68.7804 136.114 71.727 138.114 75.0054 138.114H87.5485C90.8201 138.114 93.7619 136.122 94.9766 133.084L122.997 63.0118V131.163C122.997 135.582 126.578 139.163 130.997 139.163H153.542C157.96 139.163 161.542 135.582 161.542 131.163L161.542 10.8365C161.542 6.41821 157.96 2.8365 153.542 2.8365L118.705 2.8365C115.485 2.8365 112.578 4.76777 111.33 7.73683L81.4676 78.7895C81.4343 78.8687 81.3568 78.9202 81.271 78.9202C81.1851 78.9202 81.1076 78.8687 81.0744 78.7895L51.2117 7.73684C49.9639 4.76778 47.0573 2.8365 43.8366 2.8365L9.00001 2.8365ZM177.244 131.164C177.244 135.582 180.825 139.163 185.244 139.163L270.131 139.163C274.549 139.163 278.131 135.582 278.131 131.163V115.779C278.131 111.361 274.549 107.779 270.131 107.779L222.595 107.779C219.281 107.779 216.595 105.093 216.595 101.779V92.692C216.595 89.3783 219.281 86.692 222.595 86.692L265.294 86.692C269.712 86.692 273.294 83.1103 273.294 78.692V63.308C273.294 58.8897 269.712 55.308 265.294 55.308L222.595 55.308C219.281 55.308 216.595 52.6217 216.595 49.308V40.2205C216.595 36.9068 219.281 34.2205 222.595 34.2205L270.399 34.2205C274.818 34.2205 278.399 30.6388 278.399 26.2205V10.8365C278.399 6.41823 274.818 2.8365 270.399 2.8365L185.244 2.8365C180.825 2.8365 177.244 6.41823 177.244 10.8365L177.244 131.164ZM294.924 131.164C294.924 135.582 298.506 139.163 302.924 139.163H326.275C330.694 139.163 334.275 135.582 334.275 131.163V100.825C334.275 97.5114 336.962 94.8251 340.275 94.8251H342.018C344.214 94.8251 346.234 96.0244 347.286 97.952L367.49 134.994C368.892 137.564 371.586 139.163 374.514 139.163H399.015C405.121 139.163 408.976 132.599 406.002 127.267L387.515 94.1178C385.84 91.1139 387.058 87.2267 390.057 85.1433C401.045 77.5108 407.366 65.4597 407.366 49.4867C407.366 34.9335 402.143 23.2344 392.959 15.1857C383.791 7.15066 370.772 2.8365 355.31 2.8365L302.924 2.8365C298.506 2.8365 294.924 6.41822 294.924 10.8365V131.164ZM340.275 64.4905C336.962 64.4905 334.275 61.8042 334.275 58.4905V39.9582C334.275 36.6445 336.962 33.9582 340.275 33.9582H346.442C352.893 33.9582 357.881 35.1903 361.237 37.6949C364.539 40.1597 366.402 43.9657 366.402 49.4867C366.402 54.9699 364.543 58.6359 361.255 60.9784C357.901 63.3674 352.91 64.4905 346.442 64.4905H340.275ZM543.085 55.2091C547.745 55.2091 551.581 51.1607 550.616 46.4354C547.647 31.8996 540.118 20.5173 529.249 12.7805C518.391 5.05189 504.258 1 488.123 1C469.365 1 452.507 7.1073 440.333 18.9598C428.152 30.8188 420.75 48.3425 420.75 71C420.75 93.5521 427.946 111.076 440.027 122.963C452.102 134.845 468.964 141 488.123 141C524.591 141 545.12 118.914 550.463 97.5661C551.637 92.8736 547.792 88.8693 543.192 88.8375L518.839 88.6689C514.857 88.6413 511.736 91.5768 510.292 94.9861C507.064 102.611 499.855 107.255 488.929 107.255C480.077 107.255 473.202 104.206 468.511 98.2564C463.79 92.2683 461.176 83.2089 461.176 71C461.176 59.4519 463.704 50.3835 468.427 44.225C473.12 38.1051 480.066 34.7452 489.197 34.7452C494.916 34.7452 499.559 36.0879 503.113 38.4263C506.662 40.7612 509.18 44.125 510.603 48.2704C511.869 51.9599 515.063 55.2091 519.255 55.2091H543.085ZM566.679 131.164C566.679 135.582 570.261 139.163 574.679 139.163H598.03C602.449 139.163 606.03 135.582 606.03 131.163V92.692C606.03 89.3783 608.717 86.692 612.03 86.692H647.474C650.788 86.692 653.474 89.3783 653.474 92.692V131.163C653.474 135.582 657.056 139.163 661.474 139.163H684.825C689.244 139.163 692.825 135.582 692.825 131.163V10.8365C692.825 6.41821 689.244 2.8365 684.825 2.8365L661.474 2.8365C657.056 2.8365 653.474 6.41822 653.474 10.8365V49.308C653.474 52.6217 650.788 55.308 647.474 55.308L612.03 55.308C608.717 55.308 606.03 52.6217 606.03 49.308V10.8365C606.03 6.41824 602.449 2.8365 598.03 2.8365L574.679 2.8365C570.261 2.8365 566.679 6.41823 566.679 10.8365V131.164ZM762.497 139.163C783.657 139.163 801.059 132.804 813.175 121.041C825.296 109.274 832.02 92.2046 832.02 71C832.02 49.7953 825.295 32.7247 813.106 20.9574C800.921 9.19436 783.385 2.8365 761.96 2.8365L716.561 2.8365C712.142 2.8365 708.561 6.41822 708.561 10.8365V131.164C708.561 135.582 712.142 139.163 716.561 139.163H762.497ZM753.912 106.205C750.598 106.205 747.912 103.519 747.912 100.205V41.7947C747.912 38.481 750.598 35.7947 753.912 35.7947H760.079C770.736 35.7947 778.738 37.8175 784.1 43.0837C789.461 48.3491 792.4 57.0713 792.4 71C792.4 84.9279 789.462 93.6572 784.226 98.9248C778.995 104.187 771.262 106.205 761.154 106.205H753.912ZM870.191 139.163C873.701 139.163 876.802 136.875 877.836 133.521L882.718 117.685C883.494 115.169 885.819 113.452 888.452 113.452H923.531C926.164 113.452 928.489 115.169 929.265 117.685L934.147 133.521C935.181 136.875 938.282 139.163 941.792 139.163H967.176C972.651 139.163 976.508 133.788 974.755 128.601L934.075 8.27434C932.977 5.02416 929.928 2.8365 926.497 2.8365L885.486 2.8365C882.055 2.8365 879.006 5.02416 877.908 8.27436L837.228 128.601C835.474 133.788 839.332 139.163 844.806 139.163H870.191ZM901.24 84.1673C897.2 84.1673 894.314 80.2553 895.507 76.3955L905.991 42.4764L916.475 76.3955C917.668 80.2553 914.783 84.1673 910.743 84.1673H901.24ZM1118 71C1118 48.3397 1110.53 30.8151 1098.25 18.9569C1085.97 7.1059 1068.98 1 1050.09 1C1031.07 1 1014.07 7.1051 1001.83 18.9579C989.582 30.8174 982.18 48.3424 982.18 71C982.18 93.5278 989.583 111.052 1001.83 122.943C1014.07 134.828 1031.06 141 1050.09 141C1068.98 141 1085.97 134.894 1098.25 123.043C1110.53 111.185 1118 93.6603 1118 71ZM1077.57 71C1077.57 82.9537 1075.11 92.0178 1070.49 98.0722C1065.9 104.083 1059.1 107.255 1050.09 107.255C1041.08 107.255 1034.28 104.083 1029.69 98.0722C1025.07 92.0178 1022.61 82.9537 1022.61 71C1022.61 59.0463 1025.07 49.9822 1029.69 43.9278C1034.28 37.9174 1041.08 34.7452 1050.09 34.7452C1059.1 34.7452 1065.9 37.9173 1070.49 43.9278C1075.11 49.9822 1077.57 59.0463 1077.57 71Z" stroke="#E6E8EC" stroke-width="2"/>
</svg>
