<svg xmlns="http://www.w3.org/2000/svg" xmlns:xlink="http://www.w3.org/1999/xlink">

    <symbol id="rocket-gradient" viewBox="0 0 20 20">
        <path d="M4.4416 13.2741C4.25815 12.4734 4.16589 11.6546 4.1666 10.8332C4.1666 6.59323 6.58577 2.96989 9.99993 1.51489C13.4141 2.96989 15.8333 6.59323 15.8333 10.8332C15.8333 11.6749 15.7383 12.4924 15.5583 13.2741L17.2416 14.7707C17.3141 14.8352 17.3618 14.9228 17.3765 15.0187C17.3913 15.1145 17.3721 15.2125 17.3224 15.2957L15.2741 18.7091C15.2415 18.7633 15.197 18.8094 15.1439 18.8438C15.0908 18.8783 15.0306 18.9002 14.9678 18.9079C14.905 18.9156 14.8412 18.9089 14.7814 18.8883C14.7215 18.8678 14.6672 18.8338 14.6224 18.7891L12.7441 16.9107C12.5879 16.7544 12.3759 16.6666 12.1549 16.6666H7.84493C7.62394 16.6666 7.41201 16.7544 7.25577 16.9107L5.37743 18.7891C5.33268 18.8338 5.27832 18.8678 5.21848 18.8883C5.15865 18.9089 5.09491 18.9156 5.0321 18.9079C4.96929 18.9002 4.90906 18.8783 4.85598 18.8438C4.8029 18.8094 4.75837 18.7633 4.72577 18.7091L2.67743 15.2966C2.6275 15.2132 2.60824 15.1151 2.623 15.0191C2.63776 14.923 2.68561 14.8352 2.75827 14.7707L4.4416 13.2741ZM9.99993 10.8332C10.442 10.8332 10.8659 10.6576 11.1784 10.3451C11.491 10.0325 11.6666 9.60859 11.6666 9.16656C11.6666 8.72453 11.491 8.30061 11.1784 7.98805C10.8659 7.67549 10.442 7.49989 9.99993 7.49989C9.5579 7.49989 9.13398 7.67549 8.82142 7.98805C8.50886 8.30061 8.33327 8.72453 8.33327 9.16656C8.33327 9.60859 8.50886 10.0325 8.82142 10.3451C9.13398 10.6576 9.5579 10.8332 9.99993 10.8332Z"
              fill="url(#paint0_linear_2_13623)"/>
        <defs>
            <linearGradient id="paint0_linear_2_13623" x1="2.61816" y1="1.51489" x2="17.3814" y2="1.51489"
                            gradientUnits="userSpaceOnUse">
                <stop stop-color="#F96D8C"/>
                <stop offset="1" stop-color="#FBD862"/>
            </linearGradient>
        </defs>
    </symbol>

    <symbol id="circle-gradient" viewBox="0 0 38 38">
        <path d="M17.417 3.24567V6.43134C14.223 6.83775 11.3035 8.44513 9.25204 10.9268C7.20057 13.4084 6.17102 16.5781 6.37264 19.7916C6.57427 23.005 7.99193 26.0212 10.3375 28.2269C12.6831 30.4327 15.7805 31.6625 19.0003 31.6665C22.0856 31.6665 25.0649 30.5405 27.3789 28.4998C29.693 26.4592 31.1828 23.6442 31.5688 20.5832H34.7561C33.9612 28.5838 27.2099 34.8332 19.0003 34.8332C10.2556 34.8332 3.16699 27.7446 3.16699 18.9998C3.16699 10.7903 9.41641 4.03892 17.417 3.24567ZM31.667 8.572L19.0003 21.2387L16.7615 18.9998L29.4282 6.33317H22.167V3.1665H34.8337V15.8332H31.667V8.572Z"
              fill="url(#paint0_linear_2_16914)"/>
        <defs>
            <linearGradient id="paint0_linear_2_16914" x1="3.16699" y1="3.1665" x2="34.8337" y2="3.1665"
                            gradientUnits="userSpaceOnUse">
                <stop stop-color="#F96D8C"/>
                <stop offset="1" stop-color="#FBD862"/>
            </linearGradient>
        </defs>
    </symbol>

    <symbol id="burger" viewBox="0 0 32 32">
        <path d="M6.66634 10.6667C5.92996 10.6667 5.33301 11.2637 5.33301 12.0001C5.33301 12.7365 5.92996 13.3334 6.66634 13.3334H25.333C26.0694 13.3334 26.6663 12.7365 26.6663 12.0001C26.6663 11.2637 26.0694 10.6667 25.333 10.6667H6.66634Z"/>
        <path d="M6.66634 18.6667C5.92996 18.6667 5.33301 19.2637 5.33301 20.0001C5.33301 20.7365 5.92996 21.3334 6.66634 21.3334H25.333C26.0694 21.3334 26.6663 20.7365 26.6663 20.0001C26.6663 19.2637 26.0694 18.6667 25.333 18.6667H6.66634Z"/>
    </symbol>

    <symbol id="arrow-right" viewBox="0 0 20 20">
        <path fill-rule="evenodd" clip-rule="evenodd"
              d="M14.0909 7.26521C14.4968 6.8906 15.1294 6.9159 15.504 7.32172L18.7348 10.8217C19.0884 11.2047 19.0884 11.7952 18.7348 12.1782L15.504 15.6783C15.1294 16.0841 14.4968 16.1094 14.091 15.7348C13.6851 15.3602 13.6598 14.7276 14.0344 14.3217L15.716 12.5L6 12.5C5.44771 12.5 5 12.0523 5 11.5C5 10.9477 5.44771 10.5 6 10.5L15.716 10.5L14.0344 8.67829C13.6598 8.27247 13.6851 7.63981 14.0909 7.26521Z"/>
    </symbol>


    <symbol id="arrow-subscribe" viewBox="0 0 14 9">
        <path fill-rule="evenodd" clip-rule="evenodd"
              d="M9.09094 0.265207C9.49676 -0.109399 10.1294 -0.0840962 10.504 0.321722L13.7348 3.82168C14.0884 4.20474 14.0884 4.79518 13.7348 5.17824L10.504 8.67828C10.1294 9.08411 9.49677 9.10941 9.09095 8.73481C8.68513 8.36021 8.65982 7.72755 9.03442 7.32173L10.716 5.49997L0.999999 5.49997C0.447714 5.49997 -7.64154e-07 5.05225 -7.86799e-07 4.49997C-8.09444e-07 3.94768 0.447714 3.49997 0.999999 3.49997L10.716 3.49997L9.03443 1.67829C8.65982 1.27247 8.68513 0.639813 9.09094 0.265207Z"
              fill="#FCFCFD"/>
    </symbol>

    <symbol id="arrow" viewBox="0 0 16 16">
        <path fill-rule="evenodd" clip-rule="evenodd"
              d="M6.60588 4.84355C6.33533 4.59382 5.91356 4.61068 5.66382 4.88123L3.50997 7.21454C3.27424 7.46991 3.27424 7.86353 3.50997 8.11891L5.66382 10.4523C5.91355 10.7228 6.33532 10.7397 6.60587 10.49C6.87642 10.2402 6.89329 9.81845 6.64356 9.5479L5.52248 8.33339L11.9998 8.33339C12.368 8.33339 12.6665 8.03492 12.6665 7.66673C12.6665 7.29854 12.368 7.00006 11.9998 7.00006L5.52251 7.00006L6.64355 5.78561C6.89329 5.51506 6.87642 5.09329 6.60588 4.84355Z"/>
    </symbol>


    <symbol id="facebook" viewBox="0 0 32 32">
        <path d="M20.536 28V18.712H23.6467L24.112 15.1013H20.536V12.7973C20.536 11.752 20.8267 11.0387 22.3253 11.0387H24.2373V7.80933C23.3117 7.71113 22.3815 7.6635 21.4507 7.66667C18.6947 7.66667 16.808 9.34933 16.808 12.44V15.1013H13.6907V18.712H16.808V28H5.33333C4.97971 28 4.64057 27.8595 4.39052 27.6095C4.14048 27.3594 4 27.0203 4 26.6667V5.33333C4 4.97971 4.14048 4.64057 4.39052 4.39052C4.64057 4.14048 4.97971 4 5.33333 4H26.6667C27.0203 4 27.3594 4.14048 27.6095 4.39052C27.8595 4.64057 28 4.97971 28 5.33333V26.6667C28 27.0203 27.8595 27.3594 27.6095 27.6095C27.3594 27.8595 27.0203 28 26.6667 28H20.536Z"/>
    </symbol>

    <symbol id="instagram" viewBox="0 0 32 32">
        <path d="M16.0001 2.66675C19.6227 2.66675 20.0747 2.68008 21.4961 2.74675C22.9161 2.81341 23.8827 3.03608 24.7334 3.36675C25.6134 3.70541 26.3547 4.16408 27.0961 4.90408C27.7741 5.57061 28.2987 6.37687 28.6334 7.26675C28.9627 8.11608 29.1867 9.08408 29.2534 10.5041C29.3161 11.9254 29.3334 12.3774 29.3334 16.0001C29.3334 19.6227 29.3201 20.0747 29.2534 21.4961C29.1867 22.9161 28.9627 23.8827 28.6334 24.7334C28.2997 25.6238 27.7749 26.4302 27.0961 27.0961C26.4294 27.7738 25.6232 28.2984 24.7334 28.6334C23.8841 28.9627 22.9161 29.1867 21.4961 29.2534C20.0747 29.3161 19.6227 29.3334 16.0001 29.3334C12.3774 29.3334 11.9254 29.3201 10.5041 29.2534C9.08408 29.1867 8.11741 28.9627 7.26675 28.6334C6.37652 28.2994 5.57012 27.7747 4.90408 27.0961C4.22596 26.4297 3.70132 25.6234 3.36675 24.7334C3.03608 23.8841 2.81341 22.9161 2.74675 21.4961C2.68408 20.0747 2.66675 19.6227 2.66675 16.0001C2.66675 12.3774 2.68008 11.9254 2.74675 10.5041C2.81341 9.08275 3.03608 8.11741 3.36675 7.26675C3.7004 6.37632 4.22515 5.56984 4.90408 4.90408C5.57031 4.22572 6.37665 3.70105 7.26675 3.36675C8.11741 3.03608 9.08275 2.81341 10.5041 2.74675C11.9254 2.68408 12.3774 2.66675 16.0001 2.66675ZM16.0001 9.33341C14.232 9.33341 12.5363 10.0358 11.286 11.286C10.0358 12.5363 9.33341 14.232 9.33341 16.0001C9.33341 17.7682 10.0358 19.4639 11.286 20.7141C12.5363 21.9644 14.232 22.6667 16.0001 22.6667C17.7682 22.6667 19.4639 21.9644 20.7141 20.7141C21.9644 19.4639 22.6667 17.7682 22.6667 16.0001C22.6667 14.232 21.9644 12.5363 20.7141 11.286C19.4639 10.0358 17.7682 9.33341 16.0001 9.33341V9.33341ZM24.6667 9.00008C24.6667 8.55805 24.4912 8.13413 24.1786 7.82157C23.866 7.50901 23.4421 7.33341 23.0001 7.33341C22.5581 7.33341 22.1341 7.50901 21.8216 7.82157C21.509 8.13413 21.3334 8.55805 21.3334 9.00008C21.3334 9.44211 21.509 9.86603 21.8216 10.1786C22.1341 10.4912 22.5581 10.6667 23.0001 10.6667C23.4421 10.6667 23.866 10.4912 24.1786 10.1786C24.4912 9.86603 24.6667 9.44211 24.6667 9.00008ZM16.0001 12.0001C17.0609 12.0001 18.0784 12.4215 18.8285 13.1717C19.5787 13.9218 20.0001 14.9392 20.0001 16.0001C20.0001 17.0609 19.5787 18.0784 18.8285 18.8285C18.0784 19.5787 17.0609 20.0001 16.0001 20.0001C14.9392 20.0001 13.9218 19.5787 13.1717 18.8285C12.4215 18.0784 12.0001 17.0609 12.0001 16.0001C12.0001 14.9392 12.4215 13.9218 13.1717 13.1717C13.9218 12.4215 14.9392 12.0001 16.0001 12.0001V12.0001Z"/>
    </symbol>

    <symbol id="telegram" viewBox="0 0 32 32">
        <path d="M2.59461 12.4201C1.89861 12.1881 1.89195 11.8135 2.60795 11.5748L28.0573 3.09214C28.7626 2.85747 29.1666 3.25214 28.9693 3.9428L21.6973 29.3908C21.4973 30.0961 21.0906 30.1201 20.7919 29.4508L15.9999 18.6668L23.9999 8.00014L13.3333 16.0001L2.59461 12.4201Z"/>
    </symbol>

    <symbol id="twitter" viewBox="0 0 32 32">
        <path d="M29.5494 7.54124C28.5315 7.99149 27.452 8.2872 26.3467 8.41857C27.5117 7.72181 28.3837 6.62525 28.8001 5.33324C27.7067 5.9839 26.5081 6.4399 25.2587 6.68657C24.4195 5.78867 23.3072 5.19319 22.0947 4.99268C20.8821 4.79218 19.6373 4.99789 18.5538 5.57784C17.4702 6.15779 16.6086 7.07948 16.1029 8.19963C15.5972 9.31977 15.4757 10.5756 15.7574 11.7719C13.5402 11.6608 11.3712 11.0846 9.39112 10.0808C7.41106 9.07698 5.66424 7.66797 4.26407 5.94524C3.76846 6.7965 3.50801 7.7642 3.5094 8.74924C3.5094 10.6826 4.4934 12.3906 5.9894 13.3906C5.10408 13.3627 4.23825 13.1236 3.46407 12.6932V12.7626C3.46434 14.0502 3.9099 15.2981 4.7252 16.2946C5.54051 17.2912 6.67538 17.9752 7.9374 18.2306C7.11556 18.4533 6.25381 18.4861 5.4174 18.3266C5.77323 19.4349 6.46675 20.4042 7.40086 21.0987C8.33497 21.7933 9.46291 22.1783 10.6267 22.1999C9.47004 23.1083 8.14564 23.7799 6.72924 24.1761C5.31285 24.5724 3.83224 24.6856 2.37207 24.5092C4.921 26.1485 7.8882 27.0187 10.9187 27.0159C21.1761 27.0159 26.7854 18.5186 26.7854 11.1492C26.7854 10.9092 26.7787 10.6666 26.7681 10.4292C27.8599 9.64013 28.8022 8.6626 29.5507 7.54257L29.5494 7.54124Z"/>
    </symbol>

    <symbol id="reddit" viewBox="0 0 32 32">
        <path d="M15.9998 29.3334C8.63584 29.3334 2.6665 23.3641 2.6665 16.0001C2.6665 8.63608 8.63584 2.66675 15.9998 2.66675C23.3638 2.66675 29.3332 8.63608 29.3332 16.0001C29.3332 23.3641 23.3638 29.3334 15.9998 29.3334ZM24.8932 16.0001C24.8794 15.6248 24.7575 15.2614 24.5419 14.9539C24.3264 14.6464 24.0264 14.4077 23.6783 14.2668C23.3302 14.1259 22.9488 14.0886 22.58 14.1596C22.2112 14.2306 21.8708 14.4067 21.5998 14.6667C20.0831 13.6357 18.3001 13.0661 16.4665 13.0267L17.3332 8.86675L20.1865 9.46675C20.2204 9.78206 20.3656 10.075 20.596 10.2929C20.8264 10.5108 21.127 10.6394 21.4437 10.6557C21.7604 10.672 22.0725 10.5749 22.3241 10.3818C22.5756 10.1887 22.7501 9.91221 22.8162 9.60205C22.8823 9.29188 22.8357 8.96831 22.6848 8.68942C22.5338 8.41053 22.2884 8.19458 21.9925 8.08033C21.6967 7.96608 21.3698 7.96102 21.0706 8.06605C20.7714 8.17108 20.5194 8.37933 20.3598 8.65341L17.0932 8.00008C17.0397 7.98836 16.9845 7.98736 16.9307 7.99714C16.8769 8.00692 16.8256 8.02728 16.7797 8.05704C16.7338 8.08681 16.6943 8.12539 16.6634 8.17054C16.6325 8.21569 16.6109 8.26652 16.5998 8.32008L15.6132 12.9467C13.757 12.9747 11.9495 13.5448 10.4132 14.5867C10.2076 14.3934 9.96249 14.247 9.69474 14.1577C9.427 14.0685 9.14305 14.0385 8.86258 14.0699C8.5821 14.1013 8.31181 14.1934 8.07044 14.3396C7.82906 14.4859 7.62237 14.6828 7.46469 14.9169C7.30702 15.151 7.20212 15.4165 7.15727 15.6952C7.11242 15.9738 7.1287 16.2589 7.20497 16.5306C7.28125 16.8023 7.41569 17.0542 7.59899 17.2688C7.78228 17.4834 8.01005 17.6556 8.2665 17.7734C8.25149 17.9687 8.25149 18.1648 8.2665 18.3601C8.2665 21.3467 11.7465 23.7734 16.0398 23.7734C20.3332 23.7734 23.8132 21.3467 23.8132 18.3601C23.8282 18.1648 23.8282 17.9687 23.8132 17.7734C24.1422 17.6099 24.4182 17.3566 24.6093 17.0428C24.8005 16.729 24.8989 16.3675 24.8932 16.0001ZM11.5598 17.3334C11.5598 16.9798 11.7003 16.6407 11.9504 16.3906C12.2004 16.1406 12.5395 16.0001 12.8932 16.0001C13.2468 16.0001 13.5859 16.1406 13.836 16.3906C14.086 16.6407 14.2265 16.9798 14.2265 17.3334C14.2265 17.687 14.086 18.0262 13.836 18.2762C13.5859 18.5263 13.2468 18.6667 12.8932 18.6667C12.5395 18.6667 12.2004 18.5263 11.9504 18.2762C11.7003 18.0262 11.5598 17.687 11.5598 17.3334ZM19.3065 21.0001C18.3605 21.713 17.1967 22.0758 16.0132 22.0267C14.8297 22.0758 13.6658 21.713 12.7198 21.0001C12.6631 20.931 12.6342 20.8433 12.6385 20.754C12.6429 20.6648 12.6804 20.5803 12.7436 20.5171C12.8068 20.4539 12.8912 20.4165 12.9805 20.4121C13.0697 20.4077 13.1574 20.4367 13.2265 20.4934C14.0281 21.0814 15.0067 21.3778 15.9998 21.3334C16.9942 21.3875 17.9773 21.1006 18.7865 20.5201C18.8206 20.4819 18.8622 20.4511 18.9087 20.4297C18.9552 20.4082 19.0056 20.3966 19.0568 20.3955C19.108 20.3944 19.1589 20.4038 19.2063 20.4231C19.2537 20.4425 19.2966 20.4714 19.3323 20.5081C19.368 20.5448 19.3959 20.5884 19.414 20.6363C19.4322 20.6841 19.4403 20.7352 19.4379 20.7864C19.4355 20.8375 19.4226 20.8876 19.4 20.9335C19.3774 20.9795 19.3455 21.0203 19.3065 21.0534V21.0001ZM19.0665 18.7201C18.8028 18.7201 18.545 18.6419 18.3257 18.4954C18.1065 18.3489 17.9356 18.1406 17.8347 17.897C17.7337 17.6534 17.7073 17.3853 17.7588 17.1266C17.8102 16.868 17.9372 16.6304 18.1237 16.4439C18.3102 16.2575 18.5477 16.1305 18.8064 16.079C19.065 16.0276 19.3331 16.054 19.5767 16.1549C19.8204 16.2558 20.0286 16.4267 20.1751 16.646C20.3216 16.8653 20.3998 17.123 20.3998 17.3867C20.4071 17.5674 20.3775 17.7477 20.3129 17.9165C20.2483 18.0854 20.15 18.2394 20.0241 18.3691C19.8981 18.4988 19.7471 18.6015 19.5802 18.671C19.4133 18.7405 19.234 18.7754 19.0532 18.7734L19.0665 18.7201Z"/>
    </symbol>

    <symbol id="linkedin" viewBox="0 0 32 32">
        <path d="M24.4467 24.452H20.8933V18.8827C20.8933 17.5547 20.8667 15.8453 19.04 15.8453C17.188 15.8453 16.9053 17.2907 16.9053 18.7853V24.452H13.3507V13H16.764V14.56H16.8107C17.288 13.6613 18.448 12.7107 20.1813 12.7107C23.7813 12.7107 24.448 15.0813 24.448 18.1653V24.452H24.4467ZM9.33733 11.4333C9.06607 11.4337 8.79741 11.3805 8.54675 11.2768C8.29609 11.1731 8.06836 11.021 7.87661 10.8291C7.68486 10.6372 7.53287 10.4094 7.42935 10.1587C7.32582 9.90795 7.27281 9.63926 7.27333 9.368C7.2736 8.95978 7.39491 8.5608 7.62192 8.22153C7.84894 7.88225 8.17146 7.61791 8.54871 7.46194C8.92595 7.30596 9.34098 7.26536 9.74131 7.34525C10.1416 7.42515 10.5093 7.62197 10.7977 7.91081C11.0862 8.19965 11.2826 8.56755 11.3619 8.96798C11.4413 9.3684 11.4002 9.78338 11.2437 10.1604C11.0872 10.5375 10.8225 10.8597 10.4829 11.0862C10.1434 11.3128 9.74422 11.4336 9.336 11.4333H9.33733ZM11.1187 24.452H7.55467V13H11.12V24.452H11.1187ZM26.2267 4H5.772C4.79067 4 4 4.77333 4 5.72933V26.2707C4 27.2267 4.792 28 5.77067 28H26.2213C27.2 28 28 27.2267 28 26.2707V5.72933C28 4.77333 27.2 4 26.2213 4H26.2253H26.2267Z"/>
    </symbol>

    <symbol id="medium" viewBox="0 0 32 32">
        <path d="M5.33333 4H26.6667C27.0203 4 27.3594 4.14048 27.6095 4.39052C27.8595 4.64057 28 4.97971 28 5.33333V26.6667C28 27.0203 27.8595 27.3594 27.6095 27.6095C27.3594 27.8595 27.0203 28 26.6667 28H5.33333C4.97971 28 4.64057 27.8595 4.39052 27.6095C4.14048 27.3594 4 27.0203 4 26.6667V5.33333C4 4.97971 4.14048 4.64057 4.39052 4.39052C4.64057 4.14048 4.97971 4 5.33333 4ZM23.0667 21.2533C22.9333 21.1867 22.8667 20.9867 22.8667 20.852V10.6747C22.8667 10.5413 22.9333 10.3413 23.0667 10.2067L24.34 8.73333V8.66667H19.7867L16.3733 17.304L12.488 8.66667H7.80267V8.73333L9.00667 10.408C9.27467 10.6747 9.34133 11.0773 9.34133 11.412V18.776C9.408 19.1787 9.34133 19.6467 9.14133 20.048L7.33333 22.5253V22.592H12.1547V22.5253L10.3467 20.116C10.1467 19.7133 10.0787 19.312 10.1467 18.844V12.1467C10.2133 12.28 10.28 12.28 10.3467 12.548L14.8987 22.7253H14.9653L19.3867 11.68C19.32 12.08 19.32 12.5493 19.32 12.8853V20.7853C19.32 20.9853 19.2533 21.1187 19.12 21.2533L17.78 22.5253V22.592H24.3413V22.5253L23.0693 21.2533H23.0667Z"/>
    </symbol>

    <symbol id="discord" viewBox="0 0 24 24">
        <path d="M10.076 11C10.676 11 11.162 11.45 11.151 12C11.151 12.55 10.677 13 10.076 13C9.486 13 9 12.55 9 12C9 11.45 9.475 11 10.076 11ZM13.924 11C14.525 11 15 11.45 15 12C15 12.55 14.525 13 13.924 13C13.334 13 12.849 12.55 12.849 12C12.849 11.45 13.323 11 13.924 11ZM18.891 2C20.054 2 21 2.966 21 4.163V23L18.789 21.005L17.544 19.829L16.227 18.579L16.773 20.522H5.109C3.946 20.522 3 19.556 3 18.359V4.163C3 2.966 3.946 2 5.109 2H18.89H18.891ZM14.921 15.713C17.194 15.64 18.069 14.117 18.069 14.117C18.069 10.736 16.587 7.995 16.587 7.995C15.107 6.862 13.697 6.893 13.697 6.893L13.553 7.061C15.302 7.607 16.114 8.395 16.114 8.395C15.1591 7.85699 14.1066 7.51434 13.018 7.387C12.3274 7.309 11.6299 7.31572 10.941 7.407C10.879 7.407 10.827 7.418 10.766 7.428C10.406 7.46 9.531 7.596 8.431 8.09C8.051 8.268 7.824 8.395 7.824 8.395C7.824 8.395 8.678 7.565 10.529 7.019L10.426 6.893C10.426 6.893 9.017 6.862 7.536 7.996C7.536 7.996 6.055 10.736 6.055 14.117C6.055 14.117 6.919 15.639 9.192 15.713C9.192 15.713 9.572 15.241 9.882 14.842C8.575 14.442 8.082 13.602 8.082 13.602C8.082 13.602 8.184 13.676 8.369 13.781C8.379 13.791 8.389 13.802 8.41 13.812C8.441 13.834 8.472 13.844 8.503 13.865C8.76 14.012 9.017 14.127 9.253 14.222C9.675 14.39 10.179 14.558 10.766 14.674C11.6453 14.8464 12.5494 14.8498 13.43 14.684C13.9429 14.5925 14.4433 14.4411 14.921 14.233C15.281 14.096 15.682 13.896 16.104 13.613C16.104 13.613 15.59 14.474 14.242 14.863C14.551 15.262 14.922 15.713 14.922 15.713H14.921Z"/>
    </symbol>

    <symbol id="bitcoin-talk" viewBox="0 0 32 32">
        <g>
            <path d="M20.444 13.8182C20.444 13.2165 19.946 12.7273 19.3328 12.7273H15.9995V14.9091H19.3328C19.946 14.9091 20.444 14.4202 20.444 13.8182Z"/>
            <path d="M20.444 18.1817C20.444 17.58 19.946 17.0908 19.3328 17.0908H15.9995V19.2726H19.3328C19.946 19.2726 20.444 18.7837 20.444 18.1817Z"/>
            <path d="M2.72506 27.2608C2.87655 27.7026 3.29957 28 3.77452 28H17.1448C23.8654 28 29.3332 22.633 29.3332 16.0363C29.3332 9.43948 23.8654 4 17.1448 4C10.4242 4 4.95643 9.43948 4.95643 16.0363C4.95643 18.5151 5.77245 20.9421 7.2732 22.9803L3.10278 26.048C2.72506 26.3303 2.57242 26.8189 2.72506 27.2608V27.2608ZM12.7127 12.7734C12.1004 12.7734 11.6046 12.2871 11.6046 11.6858C11.6046 11.0848 12.1004 10.5982 12.7127 10.5982H13.8207V9.51057C13.8207 8.90955 14.3164 8.42296 14.9287 8.42296C15.5413 8.42296 16.0368 8.90955 16.0368 9.51057V10.5982H18.2528V9.51057C18.2528 8.90955 18.7486 8.42296 19.3609 8.42296C19.9735 8.42296 20.4689 8.90955 20.4689 9.51057V10.7987C21.7558 11.2491 22.685 12.4451 22.685 13.861C22.685 14.7 22.352 15.4576 21.8205 16.0363C22.352 16.6149 22.685 17.3728 22.685 18.2115C22.685 19.6276 21.7558 20.8235 20.4689 21.2741V22.5619C20.4689 23.1632 19.9735 23.6495 19.3609 23.6495C18.7486 23.6495 18.2528 23.1632 18.2528 22.5619V21.4743H16.0368V22.5619C16.0368 23.1632 15.5413 23.6495 14.9287 23.6495C14.3164 23.6495 13.8207 23.1632 13.8207 22.5619V21.4743H12.7127C12.1004 21.4743 11.6046 20.988 11.6046 20.3867C11.6046 19.7857 12.1004 19.2991 12.7127 19.2991H13.8207V12.7734H12.7127Z"/>
        </g>
    </symbol>

    <symbol id="poly" viewBox="0 0 24 24">
        <path d="M17.658 8.11276C17.2559 7.87537 16.7389 7.87537 16.2794 8.11276L13.0627 10.0712L10.8799 11.3175L7.72063 13.276C7.31854 13.5134 6.80157 13.5134 6.34204 13.276L3.87206 11.7329C3.46997 11.4956 3.18277 11.0208 3.18277 10.4866V7.51929C3.18277 7.04451 3.41253 6.56973 3.87206 6.273L6.34204 4.78932C6.74413 4.55193 7.2611 4.55193 7.72063 4.78932L10.1906 6.33234C10.5927 6.56973 10.8799 7.04451 10.8799 7.57864V9.53709L13.0627 8.23145V6.21365C13.0627 5.73887 12.8329 5.2641 12.3734 4.96736L7.77807 2.17804C7.37598 1.94065 6.85901 1.94065 6.39948 2.17804L1.6893 5.02671C1.22977 5.2641 1 5.73887 1 6.21365V11.7923C1 12.2671 1.22977 12.7418 1.6893 13.0386L6.34204 15.8279C6.74413 16.0653 7.2611 16.0653 7.72063 15.8279L10.8799 13.9288L13.0627 12.6231L16.2219 10.724C16.624 10.4866 17.141 10.4866 17.6005 10.724L20.0705 12.2077C20.4726 12.4451 20.7598 12.9199 20.7598 13.454V16.4214C20.7598 16.8961 20.53 17.3709 20.0705 17.6677L17.658 19.1513C17.2559 19.3887 16.7389 19.3887 16.2794 19.1513L13.8094 17.6677C13.4073 17.4303 13.1201 16.9555 13.1201 16.4214V14.5223L10.9373 15.8279V17.7864C10.9373 18.2611 11.1671 18.7359 11.6266 19.0326L16.2794 21.822C16.6815 22.0593 17.1984 22.0593 17.658 21.822L22.3107 19.0326C22.7128 18.7953 23 18.3205 23 17.7864V12.1484C23 11.6736 22.7702 11.1988 22.3107 10.9021L17.658 8.11276Z"
              fill="#9B51E0"/>
    </symbol>

    <symbol id="poly-white" viewBox="0 0 24 24">
        <path d="M17.658 8.11276C17.2559 7.87537 16.7389 7.87537 16.2794 8.11276L13.0627 10.0712L10.8799 11.3175L7.72063 13.276C7.31854 13.5134 6.80157 13.5134 6.34204 13.276L3.87206 11.7329C3.46997 11.4956 3.18277 11.0208 3.18277 10.4866V7.51929C3.18277 7.04451 3.41253 6.56973 3.87206 6.273L6.34204 4.78932C6.74413 4.55193 7.2611 4.55193 7.72063 4.78932L10.1906 6.33234C10.5927 6.56973 10.8799 7.04451 10.8799 7.57864V9.53709L13.0627 8.23145V6.21365C13.0627 5.73887 12.8329 5.2641 12.3734 4.96736L7.77807 2.17804C7.37598 1.94065 6.85901 1.94065 6.39948 2.17804L1.6893 5.02671C1.22977 5.2641 1 5.73887 1 6.21365V11.7923C1 12.2671 1.22977 12.7418 1.6893 13.0386L6.34204 15.8279C6.74413 16.0653 7.2611 16.0653 7.72063 15.8279L10.8799 13.9288L13.0627 12.6231L16.2219 10.724C16.624 10.4866 17.141 10.4866 17.6005 10.724L20.0705 12.2077C20.4726 12.4451 20.7598 12.9199 20.7598 13.454V16.4214C20.7598 16.8961 20.53 17.3709 20.0705 17.6677L17.658 19.1513C17.2559 19.3887 16.7389 19.3887 16.2794 19.1513L13.8094 17.6677C13.4073 17.4303 13.1201 16.9555 13.1201 16.4214V14.5223L10.9373 15.8279V17.7864C10.9373 18.2611 11.1671 18.7359 11.6266 19.0326L16.2794 21.822C16.6815 22.0593 17.1984 22.0593 17.658 21.822L22.3107 19.0326C22.7128 18.7953 23 18.3205 23 17.7864V12.1484C23 11.6736 22.7702 11.1988 22.3107 10.9021L17.658 8.11276Z"
              fill="#ffffff"/>
    </symbol>

    <symbol id="eth" viewBox="0 0 24 24">
        <path d="M11.9995 0V8.87157L19.9959 12.2236L11.9995 0Z" fill="#2F80ED"/>
        <path opacity="0.996" d="M11.9983 0L4.00049 12.2217L11.9983 8.86967V0Z" fill="#69A6F9"/>
        <path d="M11.9995 17.972V24.0001L20 13.6182L11.9995 17.972Z" fill="#2D7AE3"/>
        <path d="M11.9978 23.9988V17.972L4 13.6182L11.9978 23.9988Z" fill="#68A5F8"/>
        <path d="M11.9995 16.5757L19.9959 12.2218L11.9995 8.87354V16.5757Z" fill="#1F61BC"/>
        <path d="M4 12.2218L11.9978 16.5757V8.87354L4 12.2218Z" fill="#2D7AE2"/>
    </symbol>

    <symbol id="bnb" viewBox="0 0 24 24">
        <path d="M8.116 10.404L12 6.52L15.886 10.406L18.146 8.146L12 2L5.856 8.144L8.116 10.404ZM2 12L4.26 9.74L6.52 12L4.26 14.26L2 12ZM8.116 13.596L12 17.48L15.886 13.594L18.146 15.853L12 22L5.856 15.856L5.853 15.853L8.116 13.596ZM17.48 12L19.74 9.74L22 12L19.74 14.26L17.48 12ZM14.292 11.998H14.294V12L12 14.294L9.709 12.004L9.705 12L9.709 11.997L10.11 11.595L10.305 11.4L12 9.706L14.293 11.999L14.292 11.998Z"
              fill="#FBC46B"/>
    </symbol>

    <symbol id="facebook-round" viewBox="0 0 20 20">
        <path fill-rule="evenodd" clip-rule="evenodd"
              d="M10.0003 16.6667C13.6822 16.6667 16.667 13.682 16.667 10.0001C16.667 6.31818 13.6822 3.33341 10.0003 3.33341C6.31843 3.33341 3.33366 6.31818 3.33366 10.0001C3.33366 13.682 6.31843 16.6667 10.0003 16.6667ZM10.0003 18.3334C14.6027 18.3334 18.3337 14.6024 18.3337 10.0001C18.3337 5.39771 14.6027 1.66675 10.0003 1.66675C5.39795 1.66675 1.66699 5.39771 1.66699 10.0001C1.66699 14.6024 5.39795 18.3334 10.0003 18.3334Z"/>
        <path d="M10.0003 8.33325C10.0003 7.87302 10.3734 7.49992 10.8337 7.49992H11.667C12.1272 7.49992 12.5003 7.12683 12.5003 6.66659C12.5003 6.20635 12.1272 5.83325 11.667 5.83325H10.8337C9.45291 5.83325 8.33366 6.95254 8.33366 8.33325V9.99992H7.50033C7.04009 9.99992 6.66699 10.373 6.66699 10.8333C6.66699 11.2935 7.04008 11.6666 7.50033 11.6666H8.33366V16.6666C8.33366 17.1268 8.70674 17.4999 9.16699 17.4999C9.62724 17.4999 10.0003 17.1268 10.0003 16.6666V11.6666H11.667C12.1272 11.6666 12.5003 11.2935 12.5003 10.8333C12.5003 10.373 12.1272 9.99992 11.667 9.99992H10.0003V8.33325Z"/>
    </symbol>

    <symbol id="more-round" viewBox="0 0 20 20">
        <path d="M4.16667 8.33325C3.25 8.33325 2.5 9.08325 2.5 9.99992C2.5 10.9166 3.25 11.6666 4.16667 11.6666C5.08333 11.6666 5.83333 10.9166 5.83333 9.99992C5.83333 9.08325 5.08333 8.33325 4.16667 8.33325ZM15.8333 8.33325C14.9167 8.33325 14.1667 9.08325 14.1667 9.99992C14.1667 10.9166 14.9167 11.6666 15.8333 11.6666C16.75 11.6666 17.5 10.9166 17.5 9.99992C17.5 9.08325 16.75 8.33325 15.8333 8.33325ZM10 8.33325C9.08333 8.33325 8.33333 9.08325 8.33333 9.99992C8.33333 10.9166 9.08333 11.6666 10 11.6666C10.9167 11.6666 11.6667 10.9166 11.6667 9.99992C11.6667 9.08325 10.9167 8.33325 10 8.33325Z"/>
    </symbol>

    <symbol id="twitter-round" viewBox="0 0 20 20">
        <path fill-rule="evenodd" clip-rule="evenodd"
              d="M4.69553 11.2962C3.62303 11.2993 2.93071 12.5203 3.59143 13.4454C4.53766 14.7702 6.25352 15.8334 9.11811 15.8334C13.5574 15.8334 17.1208 12.2179 16.622 7.94617L17.3528 6.48537C17.8597 5.4723 16.9789 4.31985 15.8676 4.54199L14.9021 4.73497C14.6461 4.59999 14.3812 4.49813 14.1548 4.42433C13.7135 4.28051 13.1794 4.16675 12.6851 4.16675C11.797 4.16675 11.0306 4.39445 10.4215 4.85115C9.81931 5.30272 9.48013 5.89617 9.294 6.44113C9.2082 6.69233 9.15106 6.94428 9.1144 7.1861C8.76985 7.07773 8.41853 6.93192 8.07459 6.75386C7.29427 6.34992 6.66328 5.83782 6.30733 5.38884C5.71014 4.63555 4.44456 4.6914 4.00046 5.67059C3.37453 7.05066 3.54623 8.68658 4.10886 10.0084C4.29744 10.4515 4.54275 10.8894 4.84244 11.2953C4.79114 11.2959 4.74206 11.2961 4.69553 11.2962ZM9.11805 14.5371C6.61254 14.5371 5.31698 13.6302 4.64707 12.6923C4.61698 12.6502 4.64733 12.5927 4.69913 12.5925C5.38063 12.5906 6.77952 12.5584 7.70213 12.0187C7.74984 11.9908 7.73934 11.9205 7.68694 11.9029C5.53629 11.1802 4.31378 8.11954 5.18177 6.20576C5.20167 6.16188 5.26069 6.15609 5.29063 6.19386C6.28215 7.44455 8.45008 8.66956 10.3363 8.70308C10.3772 8.70379 10.4081 8.66665 10.4019 8.62622C10.3259 8.13376 10.0357 5.46304 12.685 5.46304C13.3176 5.46304 14.2589 5.77145 14.6056 6.08741C14.6216 6.10201 14.6434 6.10864 14.6646 6.10439L16.1219 5.81311C16.1748 5.80253 16.2168 5.85741 16.1927 5.90565L15.2888 7.71224C15.2825 7.72478 15.2806 7.73918 15.283 7.75299C15.916 11.3093 13.0015 14.5371 9.11805 14.5371Z"/>
    </symbol>

    <symbol id="social-round" viewBox="0 0 20 20">
        <path fill-rule="evenodd" clip-rule="evenodd"
              d="M10.0003 16.6667C13.6822 16.6667 16.667 13.682 16.667 10.0001C16.667 6.31818 13.6822 3.33341 10.0003 3.33341C6.31843 3.33341 3.33366 6.31818 3.33366 10.0001C3.33366 13.682 6.31843 16.6667 10.0003 16.6667ZM10.0003 18.3334C14.6027 18.3334 18.3337 14.6025 18.3337 10.0001C18.3337 5.39771 14.6027 1.66675 10.0003 1.66675C5.39795 1.66675 1.66699 5.39771 1.66699 10.0001C1.66699 14.6025 5.39795 18.3334 10.0003 18.3334Z"/>
        <path fill-rule="evenodd" clip-rule="evenodd"
              d="M11.4552 15.1473C12.0708 13.9161 12.4997 12.0986 12.4997 10.0001C12.4997 7.90153 12.0708 6.08405 11.4552 4.85288C10.7898 3.52202 10.1789 3.33341 9.99967 3.33341C9.82046 3.33341 9.20954 3.52202 8.54411 4.85288C7.92852 6.08405 7.49967 7.90153 7.49967 10.0001C7.49967 12.0986 7.92852 13.9161 8.54411 15.1473C9.20954 16.4781 9.82046 16.6667 9.99967 16.6667C10.1789 16.6667 10.7898 16.4781 11.4552 15.1473ZM9.99967 18.3334C12.3009 18.3334 14.1663 14.6025 14.1663 10.0001C14.1663 5.39771 12.3009 1.66675 9.99967 1.66675C7.69849 1.66675 5.83301 5.39771 5.83301 10.0001C5.83301 14.6025 7.69849 18.3334 9.99967 18.3334Z"/>
        <path fill-rule="evenodd" clip-rule="evenodd"
              d="M18.2925 10.8334C18.3197 10.5593 18.3337 10.2813 18.3337 10.0001C18.3337 9.71883 18.3197 9.44084 18.2925 9.16675H1.70814C1.68093 9.44084 1.66699 9.71883 1.66699 10.0001C1.66699 10.2813 1.68093 10.5593 1.70814 10.8334H18.2925Z"/>
    </symbol>

    <symbol id="telegram-round" viewBox="0 0 24 24">
        <path d="M12 22C6.477 22 2 17.523 2 12C2 6.477 6.477 2 12 2C17.523 2 22 6.477 22 12C22 17.523 17.523 22 12 22ZM8.89 13.17L8.903 13.163L9.773 16.033C9.885 16.344 10.039 16.4 10.226 16.374C10.414 16.349 10.513 16.248 10.636 16.13L11.824 14.982L14.374 16.87C14.84 17.127 15.175 16.994 15.291 16.438L16.948 8.616C17.131 7.888 16.811 7.596 16.246 7.828L6.513 11.588C5.849 11.854 5.853 12.226 6.393 12.391L8.89 13.171V13.17Z"
              fill="#777E91"/>
    </symbol>

    <symbol id="small-arrow" viewBox="0 0 24 24">
        <path fill-rule="evenodd" clip-rule="evenodd"
              d="M14.2071 16.2071C14.5976 15.8166 14.5976 15.1834 14.2071 14.7929L11.4142 12L14.2071 9.20711C14.5976 8.81658 14.5976 8.18342 14.2071 7.79289C13.8166 7.40237 13.1834 7.40237 12.7929 7.79289L9.29289 11.2929C8.90237 11.6834 8.90237 12.3166 9.29289 12.7071L12.7929 16.2071C13.1834 16.5976 13.8166 16.5976 14.2071 16.2071Z"/>
    </symbol>

    <symbol id="small-arrow-right" viewBox="0 0 24 24">
        <path fill-rule="evenodd" clip-rule="evenodd"
              d="M9.79289 7.79289C9.40237 8.18342 9.40237 8.81658 9.79289 9.20711L12.5858 12L9.79289 14.7929C9.40237 15.1834 9.40237 15.8166 9.79289 16.2071C10.1834 16.5976 10.8166 16.5976 11.2071 16.2071L14.7071 12.7071C15.0976 12.3166 15.0976 11.6834 14.7071 11.2929L11.2071 7.79289C10.8166 7.40237 10.1834 7.40237 9.79289 7.79289Z"/>
    </symbol>

    <symbol id="ruler" viewBox="0 0 17 16">
        <path d="M4.72859 9.74742L2.84326 11.6334L5.19992 13.9901L14.1566 5.03342L11.7999 2.67675L10.3853 4.09075L11.3286 5.03342L10.3853 5.97609L9.44259 5.03342L8.02859 6.44809L9.44259 7.86142L8.49992 8.80542L7.08592 7.39142L5.67126 8.80542L6.61459 9.74809L5.67126 10.6914L4.72859 9.74809V9.74742ZM12.2713 1.26209L15.5713 4.56209C15.6962 4.6871 15.7664 4.85664 15.7664 5.03342C15.7664 5.2102 15.6962 5.37973 15.5713 5.50475L5.67126 15.4048C5.54624 15.5297 5.3767 15.5999 5.19992 15.5999C5.02315 15.5999 4.85361 15.5297 4.72859 15.4048L1.42859 12.1048C1.30361 11.9797 1.2334 11.8102 1.2334 11.6334C1.2334 11.4566 1.30361 11.2871 1.42859 11.1621L11.3286 1.26209C11.4536 1.1371 11.6231 1.06689 11.7999 1.06689C11.9767 1.06689 12.1462 1.1371 12.2713 1.26209V1.26209Z"
              fill="white"/>
    </symbol>

    <symbol id="close" viewBox="0 0 36 36">
        <path fill-rule="evenodd" clip-rule="evenodd"
              d="M20.4744 19.5002L27.9868 11.9876C28.6711 11.3034 28.6711 10.1974 27.9868 9.51318C27.3026 8.82894 26.1967 8.82894 25.5124 9.51318L18 17.0258L10.4876 9.51318C9.80334 8.82894 8.69739 8.82894 8.01317 9.51318C7.32894 10.1974 7.32894 11.3034 8.01317 11.9876L15.5256 19.5002L8.01317 27.0128C7.32894 27.697 7.32894 28.803 8.01317 29.4873C8.3544 29.8285 8.80238 30 9.25036 30C9.69835 30 10.1463 29.8285 10.4876 29.4873L18 21.9747L25.5124 29.4873C25.8537 29.8285 26.3017 30 26.7496 30C27.1976 30 27.6456 29.8285 27.9868 29.4873C28.6711 28.803 28.6711 27.697 27.9868 27.0128L20.4744 19.5002Z"/>
    </symbol>

    <symbol id="loading" viewBox="0 0 16 16">
        <path d="M8.00016 1.3335C7.63197 1.3335 7.3335 1.63197 7.3335 2.00016V4.00016C7.3335 4.36835 7.63197 4.66683 8.00016 4.66683C8.36835 4.66683 8.66683 4.36835 8.66683 4.00016V2.00016C8.66683 1.63197 8.36835 1.3335 8.00016 1.3335Z"
              fill="#23262F"/>
        <path d="M8.00016 11.3335C7.63197 11.3335 7.3335 11.632 7.3335 12.0002V14.0002C7.3335 14.3684 7.63197 14.6668 8.00016 14.6668C8.36835 14.6668 8.66683 14.3684 8.66683 14.0002V12.0002C8.66683 11.632 8.36835 11.3335 8.00016 11.3335Z"
              fill="#23262F"/>
        <path d="M14.0002 7.3335C14.3684 7.3335 14.6668 7.63197 14.6668 8.00016C14.6668 8.36835 14.3684 8.66683 14.0002 8.66683H12.0002C11.632 8.66683 11.3335 8.36835 11.3335 8.00016C11.3335 7.63197 11.632 7.3335 12.0002 7.3335H14.0002Z"
              fill="#23262F"/>
        <path d="M4.66683 8.00016C4.66683 7.63197 4.36835 7.3335 4.00016 7.3335H2.00016C1.63197 7.3335 1.3335 7.63197 1.3335 8.00016C1.3335 8.36835 1.63197 8.66683 2.00016 8.66683H4.00016C4.36835 8.66683 4.66683 8.36835 4.66683 8.00016Z"
              fill="#23262F"/>
        <path d="M11.7714 3.28618C12.0318 3.02583 12.4539 3.02583 12.7142 3.28618C12.9746 3.54653 12.9746 3.96864 12.7142 4.22899L11.3 5.64321C11.0397 5.90356 10.6176 5.90356 10.3572 5.64321C10.0969 5.38286 10.0969 4.96075 10.3572 4.7004L11.7714 3.28618Z"
              fill="#23262F"/>
        <path d="M5.64312 10.3571C5.38277 10.0968 4.96066 10.0968 4.70031 10.3571L3.28609 11.7714C3.02574 12.0317 3.02574 12.4538 3.28609 12.7142C3.54644 12.9745 3.96855 12.9745 4.2289 12.7142L5.64312 11.3C5.90347 11.0396 5.90347 10.6175 5.64312 10.3571Z"
              fill="#23262F"/>
        <path d="M12.7142 11.7714C12.9746 12.0318 12.9746 12.4539 12.7142 12.7142C12.4539 12.9746 12.0318 12.9746 11.7714 12.7142L10.3572 11.3C10.0969 11.0397 10.0969 10.6176 10.3572 10.3572C10.6176 10.0969 11.0397 10.0969 11.3 10.3572L12.7142 11.7714Z"
              fill="#23262F"/>
        <path d="M5.64318 5.64312C5.90353 5.38277 5.90353 4.96066 5.64318 4.70031L4.22897 3.28609C3.96862 3.02574 3.54651 3.02574 3.28616 3.28609C3.02581 3.54644 3.02581 3.96855 3.28616 4.2289L4.70037 5.64312C4.96072 5.90347 5.38283 5.90347 5.64318 5.64312Z"
              fill="#23262F"/>
    </symbol>

</svg>