<svg width="42" height="42" viewBox="0 0 42 42" fill="none" xmlns="http://www.w3.org/2000/svg">
<path d="M12.8265 40.349C10.3314 39.2951 8.06513 37.767 6.15237 35.8492C4.23343 33.937 2.70399 31.6701 1.65012 29.1745C0.556128 26.5883 -0.00496199 23.8081 3.30595e-05 21C-0.00458694 18.1916 0.556913 15.4112 1.65138 12.8249C2.70524 10.3293 4.23468 8.06225 6.15363 6.15009C8.06639 4.23234 10.3327 2.70415 12.8278 1.65029C15.4129 0.555531 18.1927 -0.00575531 21 4.4492e-05C23.8084 -0.00573745 26.5893 0.555832 29.1753 1.651C31.6704 2.70503 33.9373 4.2332 35.8502 6.1508C37.7679 8.06355 39.296 10.3304 40.3499 12.8255C41.4438 15.4117 42.0049 18.192 42 21C42.0044 23.8076 41.4431 26.5874 40.3493 29.1732C39.2954 31.6684 37.7673 33.9352 35.8495 35.8479C33.9366 37.7655 31.6698 39.2937 29.1747 40.3477C26.5889 41.4433 23.8083 42.0052 21 42C18.1922 42.0055 15.412 41.444 12.8265 40.349ZM15.9185 8.97125C14.3673 9.62726 12.9582 10.5778 11.769 11.7703C10.5766 12.9593 9.62655 14.3686 8.97171 15.9199C8.29059 17.5274 7.94144 19.2561 7.94506 21.002C7.94163 22.7472 8.29078 24.4751 8.97171 26.082C9.62658 27.6333 10.5766 29.0426 11.769 30.2316C12.9583 31.4241 14.3674 32.3747 15.9185 33.0307C17.5262 33.7103 19.2546 34.0588 21 34.0555C22.7455 34.059 24.4738 33.7105 26.0815 33.0307C27.6329 32.3751 29.0421 31.4245 30.231 30.2316C31.4232 29.0426 32.373 27.6332 33.0277 26.082C33.7091 24.4752 34.0585 22.7473 34.0549 21.002C34.0587 19.256 33.7093 17.5273 33.0277 15.9199C32.3731 14.3686 31.4232 12.9593 30.231 11.7703C29.0421 10.5774 27.6329 9.62678 26.0815 8.97125C24.4738 8.29152 22.7455 7.94293 21 7.94641C19.2546 7.94309 17.5262 8.29167 15.9185 8.97125ZM19.613 24.9732C18.9276 24.9732 18.2704 24.7009 17.7856 24.2162C17.3009 23.7315 17.0284 23.0741 17.0284 22.3886V19.6101C17.0284 18.9246 17.3009 18.2673 17.7856 17.7826C18.2704 17.2979 18.9276 17.0255 19.613 17.0255H22.392C23.0775 17.0255 23.7347 17.2979 24.2194 17.7826C24.7041 18.2673 24.9766 18.9246 24.9766 19.6101V22.3886C24.9766 23.0741 24.7041 23.7315 24.2194 24.2162C23.7347 24.7009 23.0775 24.9732 22.392 24.9732H19.613Z" fill="#3772FF"/>
</svg>
