<svg width="34" height="32" viewBox="0 0 34 32" fill="none" xmlns="http://www.w3.org/2000/svg">
<path d="M31.6759 1L18.9502 10.3777L21.3138 4.84531L31.6759 1Z" fill="#E17726" stroke="#E17726" stroke-linecap="round" stroke-linejoin="round"/>
<path d="M2.32373 1L14.9354 10.4663L12.6875 4.84489L2.32373 1Z" fill="#E27625" stroke="#E27625" stroke-linecap="round" stroke-linejoin="round"/>
<path d="M27.1008 22.7388L23.7148 27.8912L30.9595 29.87L33.0298 22.8524L27.1008 22.7388Z" fill="#E27625" stroke="#E27625" stroke-linecap="round" stroke-linejoin="round"/>
<path d="M0.982422 22.8524L3.04032 29.87L10.285 27.8912L6.91141 22.7388L0.982422 22.8524Z" fill="#E27625" stroke="#E27625" stroke-linecap="round" stroke-linejoin="round"/>
<path d="M9.88867 14.0326L7.86963 17.0662L15.0516 17.3838L14.8086 9.70508L9.88867 14.0326Z" fill="#E27625" stroke="#E27625" stroke-linecap="round" stroke-linejoin="round"/>
<path d="M24.1116 14.0324L19.1153 9.61621L18.9487 17.3857L26.1306 17.0681L24.1116 14.0324Z" fill="#E27625" stroke="#E27625" stroke-linecap="round" stroke-linejoin="round"/>
<path d="M10.2852 27.8912L14.6175 25.7962L10.8856 22.9038L10.2852 27.8912Z" fill="#E27625" stroke="#E27625" stroke-linecap="round" stroke-linejoin="round"/>
<path d="M19.3828 25.7962L23.7151 27.8912L23.1147 22.9038L19.3828 25.7962Z" fill="#E27625" stroke="#E27625" stroke-linecap="round" stroke-linejoin="round"/>
<path d="M23.7151 27.8914L19.3828 25.7964L19.7279 28.6014L19.6903 29.7812L23.7151 27.8914Z" fill="#D5BFB2" stroke="#D5BFB2" stroke-linecap="round" stroke-linejoin="round"/>
<path d="M10.2852 27.8915L14.3104 29.7817L14.2852 28.6019L14.6175 25.7969L10.2852 27.8915Z" fill="#D5BFB2" stroke="#D5BFB2" stroke-linecap="round" stroke-linejoin="round"/>
<path d="M14.3875 21.0517L10.7842 19.9991L13.3268 18.8442L14.3875 21.0517Z" fill="#233447" stroke="#233447" stroke-linecap="round" stroke-linejoin="round"/>
<path d="M19.6128 21.0517L20.674 18.8442L23.2289 19.9991L19.6128 21.0517Z" fill="#233447" stroke="#233447" stroke-linecap="round" stroke-linejoin="round"/>
<path d="M10.2853 27.8912L10.9109 22.7388L6.91211 22.8524L10.2853 27.8912Z" fill="#CC6228" stroke="#CC6228" stroke-linecap="round" stroke-linejoin="round"/>
<path d="M23.0894 22.7388L23.715 27.8912L27.101 22.8524L23.0894 22.7388Z" fill="#CC6228" stroke="#CC6228" stroke-linecap="round" stroke-linejoin="round"/>
<path d="M26.1306 17.0664L18.9487 17.3841L19.6132 21.0504L20.6744 18.843L23.2293 19.9978L26.1306 17.0664Z" fill="#CC6228" stroke="#CC6228" stroke-linecap="round" stroke-linejoin="round"/>
<path d="M10.7833 19.9978L13.3259 18.843L14.3871 21.0504L15.0516 17.3841L7.86963 17.0664L10.7833 19.9978Z" fill="#CC6228" stroke="#CC6228" stroke-linecap="round" stroke-linejoin="round"/>
<path d="M7.86963 17.0664L10.8854 22.9037L10.7833 19.9974L7.86963 17.0664Z" fill="#E27525" stroke="#E27525" stroke-linecap="round" stroke-linejoin="round"/>
<path d="M23.2297 19.9974L23.1152 22.9037L26.131 17.0664L23.2297 19.9974Z" fill="#E27525" stroke="#E27525" stroke-linecap="round" stroke-linejoin="round"/>
<path d="M15.0512 17.3838L14.3867 21.0501L15.2301 25.376L15.409 19.6786L15.0512 17.3838Z" fill="#E27525" stroke="#E27525" stroke-linecap="round" stroke-linejoin="round"/>
<path d="M18.9494 17.3838L18.6035 19.6654L18.7696 25.3755L19.613 21.0497L18.9494 17.3838Z" fill="#E27525" stroke="#E27525" stroke-linecap="round" stroke-linejoin="round"/>
<path d="M19.6129 21.0504L18.7695 25.3762L19.3823 25.7948L23.1142 22.9025L23.2287 19.9961L19.6129 21.0504Z" fill="#F5841F" stroke="#F5841F" stroke-linecap="round" stroke-linejoin="round"/>
<path d="M10.7837 19.9976L10.8857 22.9039L14.6176 25.7963L15.2304 25.3777L14.387 21.0519L10.7837 19.9976Z" fill="#F5841F" stroke="#F5841F" stroke-linecap="round" stroke-linejoin="round"/>
<path d="M19.6898 29.7814L19.7274 28.6015L19.4088 28.3229H14.591L14.2852 28.6015L14.3104 29.7814L10.2852 27.8916L11.691 29.0329L14.5521 31.0003H19.446L22.3071 29.0329L23.7129 27.8916L19.6898 29.7814Z" fill="#C0AC9D" stroke="#C0AC9D" stroke-linecap="round" stroke-linejoin="round"/>
<path d="M19.3828 25.7965L18.77 25.3779H15.2307L14.6179 25.7965L14.2856 28.6015L14.5914 28.3229H19.4097L19.7282 28.6015L19.3828 25.7965Z" fill="#161616" stroke="#161616" stroke-linecap="round" stroke-linejoin="round"/>
<path d="M32.2123 10.9876L33.2859 5.81014L31.6759 1L19.3828 10.0613L24.1114 14.0326L30.7937 15.975L32.264 14.2612L31.6234 13.8049L32.6453 12.8773L31.8664 12.2688L32.8883 11.4952L32.2123 10.9876Z" fill="#763E1A" stroke="#763E1A" stroke-linecap="round" stroke-linejoin="round"/>
<path d="M0.714355 5.81014L1.79903 10.9876L1.10937 11.4965L2.13127 12.27L1.35235 12.8786L2.37425 13.8061L1.7337 14.2625L3.20398 15.9762L9.88627 14.0339L14.6149 10.0626L2.32429 1L0.714355 5.81014Z" fill="#763E1A" stroke="#763E1A" stroke-linecap="round" stroke-linejoin="round"/>
<path d="M30.7932 15.9751L24.111 14.0327L26.13 17.0663L23.1143 22.9036L27.1006 22.8523H33.0301L30.7932 15.9751Z" fill="#F5841F" stroke="#F5841F" stroke-linecap="round" stroke-linejoin="round"/>
<path d="M9.88835 14.0327L3.20692 15.9751L0.98291 22.8527H6.91232L10.8859 22.904L7.87017 17.0667L9.88835 14.0327Z" fill="#F5841F" stroke="#F5841F" stroke-linecap="round" stroke-linejoin="round"/>
<path d="M18.948 17.3837L19.3823 10.0612L21.3117 4.84473H12.6855L14.6149 10.0612L15.0492 17.3837L15.2153 19.6925L15.2277 25.3754H18.767L18.7794 19.6925L18.948 17.3837Z" fill="#F5841F" stroke="#F5841F" stroke-linecap="round" stroke-linejoin="round"/>
</svg>
