<svg width="48" height="30" viewBox="0 0 48 30" fill="none" xmlns="http://www.w3.org/2000/svg">
<path d="M10.1244 6.16604C13.8425 2.5324 18.8205 0.5 24.0024 0.5C29.1843 0.5 34.1623 2.5324 37.8804 6.16604L38.8006 7.07797C38.8915 7.16682 38.9638 7.27314 39.0132 7.39062C39.0625 7.5081 39.0879 7.63436 39.0879 7.76192C39.0879 7.88947 39.0625 8.01573 39.0132 8.13321C38.9638 8.2507 38.8915 8.35701 38.8006 8.44586L35.6451 11.5571C35.5522 11.6476 35.428 11.6982 35.2988 11.6982C35.1695 11.6982 35.0453 11.6476 34.9524 11.5571L33.6816 10.3035C31.0877 7.76853 27.6148 6.35064 23.9997 6.35064C20.3846 6.35064 16.9118 7.76853 14.3179 10.3035L12.9586 11.6446C12.8657 11.735 12.7415 11.7856 12.6123 11.7856C12.483 11.7856 12.3588 11.735 12.2659 11.6446L9.11039 8.5333C9.01948 8.44445 8.94721 8.33813 8.89785 8.22065C8.8485 8.10317 8.82307 7.97691 8.82307 7.84935C8.82307 7.7218 8.8485 7.59554 8.89785 7.47806C8.94721 7.36057 9.01948 7.25426 9.11039 7.16541L10.1244 6.16604ZM44.404 12.6L47.2127 15.3679C47.3036 15.4568 47.3759 15.5631 47.4252 15.6806C47.4746 15.7981 47.5 15.9243 47.5 16.0519C47.5 16.1794 47.4746 16.3057 47.4252 16.4232C47.3759 16.5407 47.3036 16.647 47.2127 16.7358L34.549 29.218C34.3632 29.3989 34.1148 29.5 33.8563 29.5C33.5978 29.5 33.3495 29.3989 33.1636 29.218L24.1734 20.3594C24.127 20.3139 24.0648 20.2885 24 20.2885C23.9352 20.2885 23.873 20.3139 23.8266 20.3594L14.839 29.218C14.6532 29.3989 14.4048 29.5 14.1463 29.5C13.8878 29.5 13.6394 29.3989 13.4536 29.218L0.787321 16.7337C0.69641 16.6448 0.624137 16.5385 0.574783 16.421C0.52543 16.3035 0.5 16.1773 0.5 16.0497C0.5 15.9222 0.52543 15.7959 0.574783 15.6784C0.624137 15.5609 0.69641 15.4546 0.787321 15.3658L3.59596 12.5978C3.78177 12.4169 4.03016 12.3158 4.28866 12.3158C4.54716 12.3158 4.79554 12.4169 4.98136 12.5978L13.9716 21.4585C14.018 21.504 14.0802 21.5294 14.145 21.5294C14.2098 21.5294 14.272 21.504 14.3184 21.4585L23.306 12.6C23.4918 12.419 23.7402 12.3179 23.9987 12.3179C24.2572 12.3179 24.5056 12.419 24.6914 12.6L33.6816 21.4585C33.728 21.504 33.7902 21.5294 33.855 21.5294C33.9198 21.5294 33.982 21.504 34.0284 21.4585L43.016 12.6C43.2019 12.4182 43.4509 12.3166 43.71 12.3166C43.9692 12.3166 44.2181 12.4182 44.404 12.6Z" fill="#3B99FC"/>
</svg>
